<?xml version="1.0" encoding="UTF-8"?>
<svg version="1.1" xmlns="http://www.w3.org/2000/svg" width="512" height="512">
<path d="M0 0 C1.22493668 -0.00524185 2.44987335 -0.0104837 3.71192932 -0.0158844 C6.2894719 -0.02227698 8.86704376 -0.02100369 11.44458008 -0.01245117 C15.36397777 -0.00393867 19.28191762 -0.03274912 23.20117188 -0.06445312 C25.71744748 -0.06606545 28.23372565 -0.06548701 30.75 -0.0625 C31.90866074 -0.07373398 33.06732147 -0.08496796 34.26109314 -0.09654236 C46.39512683 0.00618423 55.96115773 3.55051806 64.625 12.09375 C70.27146467 18.27529112 74.05564292 25.35755007 74.07562733 33.83342934 C74.08008517 34.71304223 74.08454301 35.59265512 74.08913594 36.49892294 C74.08895158 37.46096935 74.08876722 38.42301576 74.08857727 39.41421509 C74.09225396 40.43963232 74.09593065 41.46504956 74.09971875 42.52154005 C74.11075927 45.96830387 74.11460007 49.41503754 74.1184082 52.86181641 C74.12467258 55.32890926 74.13131936 57.79600117 74.13832092 60.26309204 C74.15754966 67.67421706 74.16814945 75.08533407 74.17704871 82.49647671 C74.18143464 85.98884645 74.18680067 89.48121468 74.19203758 92.97358322 C74.20904835 104.58710477 74.22354164 116.20062539 74.23078632 127.81415749 C74.23269613 130.8267886 74.23461648 133.8394197 74.23657227 136.85205078 C74.23705601 137.60080059 74.23753975 138.34955041 74.23803815 139.12098961 C74.24633518 151.24523058 74.27166723 163.36937278 74.30415294 175.49357064 C74.33725266 187.94874422 74.35523773 200.40386766 74.35843056 212.85908544 C74.36059301 219.84917984 74.36930251 226.83913022 74.39489174 233.82918167 C74.41891669 240.40701704 74.42240615 246.98464024 74.41213036 253.5625267 C74.41163485 255.97394929 74.41795963 258.38538462 74.4316864 260.79676819 C74.44940871 264.09517824 74.44229658 267.39265935 74.42915344 270.69107056 C74.44012269 271.63973263 74.45109193 272.58839471 74.46239358 273.56580412 C74.36826714 283.3861786 70.89000634 292.3253614 64.00390625 299.43359375 C56.56490831 306.45931402 48.75037326 310.50574521 38.4453125 310.6105957 C37.34316406 310.62343094 36.24101562 310.63626617 35.10546875 310.64949036 C33.91695313 310.65687729 32.7284375 310.66426422 31.50390625 310.671875 C30.27285156 310.67994675 29.04179687 310.68801849 27.7734375 310.69633484 C25.16423955 310.71016856 22.55502355 310.72089389 19.94580078 310.72875977 C15.9844174 310.74191971 12.02365656 310.78979598 8.0625 310.83398438 C5.52214153 310.8441175 2.98177598 310.85263166 0.44140625 310.859375 C-1.31707642 310.88563713 -1.31707642 310.88563713 -3.11108398 310.91242981 C-13.99812062 310.88417743 -23.65055977 308.57301387 -32.08984375 301.41796875 C-41.55200531 291.88071067 -44.2140052 280.64228018 -44.19230652 267.62969971 C-44.19457208 266.6353909 -44.19683763 265.64108209 -44.19917184 264.61664271 C-44.20550749 261.28120056 -44.20468275 257.94579908 -44.20385742 254.61035156 C-44.20684921 252.22030586 -44.21025178 249.83026064 -44.21403503 247.44021606 C-44.22195905 241.61919862 -44.22508964 235.79819354 -44.22564741 229.97717097 C-44.2261229 225.24386071 -44.22817928 220.51055378 -44.23134804 215.77724457 C-44.2401537 202.35001765 -44.24476764 188.92279872 -44.24401756 175.4955689 C-44.24397761 174.77193351 -44.24393765 174.04829811 -44.24389648 173.30273438 C-44.2438556 172.57821267 -44.24381472 171.85369097 -44.2437726 171.10721406 C-44.24336632 159.37038618 -44.25293161 147.63359041 -44.26703485 135.89677182 C-44.28141005 123.83820545 -44.28830438 111.77965474 -44.28744107 99.72107959 C-44.28710946 92.95408697 -44.28984066 86.18712801 -44.30061913 79.42014313 C-44.31030325 73.05408864 -44.31037705 66.68810518 -44.30310249 60.32204819 C-44.30205701 57.98761517 -44.30441739 55.65317772 -44.31046295 53.31875229 C-44.31819093 50.12755899 -44.31353254 46.93661047 -44.30583191 43.74542236 C-44.31097547 42.82565715 -44.31611904 41.90589194 -44.32141846 40.95825505 C-44.25990457 29.39082319 -41.31637392 18.91455717 -33.05859375 10.43359375 C-22.71630934 1.90073294 -13.21074741 -0.03341301 0 0 Z " fill="#000000" transform="translate(326.05859375,100.56640625)"/>
<path d="M0 0 C1.65322266 -0.01925285 1.65322266 -0.01925285 3.33984375 -0.03889465 C4.52835938 -0.04628159 5.716875 -0.05366852 6.94140625 -0.0612793 C8.17246094 -0.06935104 9.40351563 -0.07742279 10.671875 -0.08573914 C13.28107295 -0.09957285 15.89028895 -0.11029819 18.49951172 -0.11816406 C22.4608951 -0.131324 26.42165594 -0.17920027 30.3828125 -0.22338867 C32.92317097 -0.2335218 35.46353652 -0.24203596 38.00390625 -0.2487793 C39.76238892 -0.27504143 39.76238892 -0.27504143 41.55639648 -0.30183411 C52.44343312 -0.27358173 62.09587227 2.03758184 70.53515625 9.19262695 C79.99246924 18.72499798 82.65650106 29.96118687 82.64434814 42.96743774 C82.64731927 43.96033542 82.65029039 44.9532331 82.65335155 45.97621858 C82.66203081 49.30698953 82.66354615 52.6377245 82.66503906 55.96850586 C82.66966782 58.35530677 82.67469256 60.74210694 82.68008423 63.12890625 C82.6932056 69.61674384 82.69968974 76.10457456 82.70409489 82.59242296 C82.70686071 86.64677466 82.71109872 90.70112399 82.71559906 94.75547409 C82.72779023 105.98987236 82.73808932 117.22426874 82.74147415 128.45867348 C82.7418035 129.53665501 82.7418035 129.53665501 82.7421395 130.63641395 C82.74246692 131.71691909 82.74246692 131.71691909 82.74280095 132.81925261 C82.74324441 134.27883442 82.74369097 135.73841624 82.74414062 137.19799805 C82.74436205 137.92199513 82.74458348 138.64599221 82.74481162 139.3919286 C82.74875682 151.11448726 82.766203 162.83698366 82.78950015 174.55951829 C82.81324854 186.60679438 82.82567761 198.65403927 82.82684207 210.70133913 C82.82775696 217.46059141 82.83346202 224.21976259 82.85166168 230.97899246 C82.86815983 237.34015232 82.87028926 243.7011585 82.86152267 250.06233215 C82.86075321 252.39270311 82.86508297 254.7230824 82.87498093 257.05343246 C82.88773418 260.24402462 82.88180496 263.43407527 82.87139893 266.62466431 C82.88348353 267.9955736 82.88348353 267.9955736 82.89581227 269.39417803 C82.80964132 280.75445332 79.72997212 290.41492933 72.06640625 298.86450195 C71.22078125 299.62762695 70.37515625 300.39075195 69.50390625 301.17700195 C68.65828125 302.02262695 67.81265625 302.86825195 66.94140625 303.73950195 C58.87664751 310.25750391 48.15919688 310.77799868 38.25 310.70825195 C37.02789322 310.71207886 35.80578644 310.71590576 34.54664612 310.71984863 C31.98104013 310.72255271 29.41540585 310.71529796 26.84985352 310.69848633 C22.94809936 310.67703874 19.04818251 310.6983516 15.14648438 310.72387695 C12.6393189 310.72123377 10.13215456 310.71610901 7.625 310.70825195 C6.47261337 310.71634888 5.32022675 310.7244458 4.13291931 310.73278809 C-7.97142842 310.59424718 -17.53655994 307.0396513 -26.1796875 298.5168457 C-31.82615217 292.33530458 -35.61033042 285.25304563 -35.63031483 276.77716637 C-35.63477267 275.89755348 -35.63923051 275.01794059 -35.64382344 274.11167276 C-35.64363908 273.14962635 -35.64345472 272.18757994 -35.64326477 271.19638062 C-35.64694146 270.17096338 -35.65061815 269.14554614 -35.65440625 268.08905566 C-35.66544677 264.64229184 -35.66928757 261.19555816 -35.6730957 257.7487793 C-35.67936008 255.28168644 -35.68600686 252.81459453 -35.69300842 250.34750366 C-35.71223716 242.93637864 -35.72283695 235.52526163 -35.73173621 228.11411899 C-35.73612214 224.62174926 -35.74148817 221.12938103 -35.74672508 217.63701248 C-35.76373585 206.02349093 -35.77822914 194.40997031 -35.78547382 182.79643822 C-35.78738363 179.78380711 -35.78930398 176.771176 -35.79125977 173.75854492 C-35.79174351 173.00979511 -35.79222725 172.2610453 -35.79272565 171.4896061 C-35.80102268 159.36536513 -35.82635473 147.24122292 -35.85884044 135.11702506 C-35.89194016 122.66185148 -35.90992523 110.20672805 -35.91311806 97.75151026 C-35.91528051 90.76141587 -35.92399001 83.77146549 -35.94957924 76.78141403 C-35.97360419 70.20357866 -35.97709365 63.62595546 -35.96681786 57.048069 C-35.96632235 54.63664641 -35.97264713 52.22521108 -35.9863739 49.81382751 C-36.00409621 46.51541747 -35.99698408 43.21793636 -35.98384094 39.91952515 C-35.99481019 38.97086307 -36.00577943 38.02220099 -36.01708108 37.04479158 C-35.92295464 27.2244171 -32.44469384 18.2852343 -25.55859375 11.17700195 C-18.11959581 4.15128168 -10.30506076 0.1048505 0 0 Z " fill="#000000" transform="translate(147.49609375,100.822998046875)"/>
</svg>
