<?xml version="1.0" encoding="UTF-8"?>
<svg version="1.1" xmlns="http://www.w3.org/2000/svg" width="512" height="512">
<path d="M0 0 C0.70688965 0.43989258 1.4137793 0.87978516 2.14208984 1.33300781 C6.00220733 3.74288201 9.84431754 6.17987905 13.6796875 8.62890625 C19.7434011 12.48941672 25.87174978 16.2431007 32 20 C39.53022051 24.62015044 47.04275168 29.26290352 54.5 34 C61.85519159 38.67114143 69.26189951 43.25417283 76.6875 47.8125 C90.15961813 56.08328261 103.56406581 64.45945907 116.95898438 72.85449219 C128.27909794 79.94728582 139.61688161 87.00867349 151 94 C164.38339493 102.21986388 177.70286521 110.53983945 191.00732422 118.88671875 C194.02500506 120.77978288 197.04361765 122.67135261 200.0625 124.5625 C201.03783691 125.17448242 202.01317383 125.78646484 203.01806641 126.41699219 C208.19136542 129.65383074 213.38719548 132.84633665 218.62109375 135.984375 C219.69029053 136.62689209 220.7594873 137.26940918 221.86108398 137.93139648 C223.91788987 139.16400824 225.97848312 140.39032706 228.04321289 141.60961914 C228.95707764 142.15739014 229.87094238 142.70516113 230.8125 143.26953125 C231.62332031 143.75010986 232.43414062 144.23068848 233.26953125 144.72583008 C233.84058594 145.14630615 234.41164063 145.56678223 235 146 C235 146.66 235 147.32 235 148 C235.58007812 148.268125 236.16015625 148.53625 236.7578125 148.8125 C247.33470895 154.41420126 252.56295062 164.60403213 256.25390625 175.5390625 C260.04596989 188.04691638 257.9022294 201.4722082 252 213 C244.37341543 224.93639928 233.57858949 231.67749889 221.62890625 238.67578125 C215.80691653 242.08986698 210.08751101 245.65653288 204.375 249.25 C195.94290553 254.54343242 187.4850457 259.79185897 179 265 C170.64377454 270.13064548 162.30901604 275.29324504 154 280.5 C143.45399723 287.10770127 132.86133114 293.63744641 122.2578125 300.15234375 C114.00727844 305.22211636 105.77548694 310.32202498 97.54443359 315.42333984 C93.19723357 318.11708555 88.84852823 320.80839917 84.5 323.5 C82.74999307 324.58332213 80.99999306 325.66665546 79.25 326.75 C53 343 53 343 26.75 359.25 C25.44929565 360.05546265 25.44929565 360.05546265 24.12231445 360.87719727 C22.38190476 361.95423881 20.64086171 363.0302576 18.89916992 364.10522461 C14.37155825 366.90152847 9.85814961 369.71772051 5.36328125 372.56640625 C4.43386719 373.15164063 3.50445312 373.736875 2.546875 374.33984375 C0.78616503 375.44909103 -0.97068077 376.56450801 -2.72265625 377.6875 C-15.71773756 385.84575392 -28.68702136 388.98950164 -44.0703125 386.50390625 C-57.1839065 383.19748725 -68.35629712 376.46287117 -75.44482422 364.71264648 C-81.16696331 354.74722748 -82.29607803 347.34079878 -82.26742554 336.01460266 C-82.27195665 334.70218462 -82.27648776 333.38976657 -82.28115618 332.03757828 C-82.29336284 328.40522888 -82.29312848 324.77297174 -82.29076743 321.14060652 C-82.29035867 317.21884031 -82.30140417 313.29710343 -82.31088257 309.37535095 C-82.32748125 301.69536412 -82.33299162 294.015408 -82.33410732 286.33540473 C-82.33505843 280.09043717 -82.33917188 273.84547972 -82.34550858 267.60051537 C-82.36311871 249.88397108 -82.37234792 232.16745101 -82.37084763 214.45089791 C-82.37076772 213.49619584 -82.3706878 212.54149377 -82.37060547 211.55786133 C-82.37052371 210.60198961 -82.37044195 209.64611789 -82.37035771 208.66128036 C-82.3695451 193.17599295 -82.3886769 177.69080288 -82.4168822 162.20554361 C-82.44563333 146.29468253 -82.45942124 130.38386887 -82.45769465 114.47298115 C-82.45703147 105.54457595 -82.46249211 96.61627277 -82.48405075 87.68789101 C-82.502292 80.0847992 -82.50658585 72.48185563 -82.4930319 64.87875137 C-82.48651676 61.00277729 -82.48633198 57.12708737 -82.5037384 53.25114059 C-82.51953944 49.69595631 -82.51653483 46.14127983 -82.49917014 42.5861074 C-82.49467952 40.70541758 -82.50970239 38.82471156 -82.52564943 36.94408399 C-82.41949018 23.77193813 -78.4148802 13.07281663 -69.5625 3.3125 C-68.716875 2.549375 -67.87125 1.78625 -67 1 C-66.51144531 0.51917969 -66.02289063 0.03835937 -65.51953125 -0.45703125 C-46.00215529 -18.76905858 -20.25690392 -12.67507396 0 0 Z " fill="#000000" transform="translate(194,68)"/>
</svg>
